<?xml version="1.0" encoding="UTF-8" standalone="no"?>
<!-- Created with Inkscape (http://www.inkscape.org/) -->

<svg
   xmlns:svg="http://www.w3.org/2000/svg"
   xmlns="http://www.w3.org/2000/svg"
   xmlns:xlink="http://www.w3.org/1999/xlink"
   version="1.1"
   width="600"
   height="100"
   id="svg2">
  <defs
     id="defs4" />
  <g
     transform="translate(0,-952.36218)"
     id="layer1">
    <g
       id="g3911">
      <rect
         width="194"
         height="75"
         x="398"
         y="964.86218"
         id="rect3137"
         style="fill:#ededed;fill-opacity:1;stroke:none" />
      <g
         transform="matrix(0.16754435,0,0,0.16754435,347.47367,959.47083)"
         id="g2875">
        <path
           d="M 71,460 30,0 481,0 440,460 255,512"
           id="path2858"
           style="fill:#e34f26" />
        <path
           d="M 256,472 405,431 440,37 256,37"
           id="path2860"
           style="fill:#ef652a" />
        <path
           d="m 256,208 -75,0 -5,-58 80,0 0,-56 -1,0 -141,0 1,15 14,156 127,0 z m 0,147 -1,0 -63,-17 -4,-45 -30,0 -26,0 7,89 116,32 1,0 z"
           id="path2862"
           style="fill:#ebebeb" />
        <path
           d="m 255,208 0,57 70,0 -7,73 -63,17 0,59 116,-32 1,-10 13,-149 2,-15 -16,0 z m 0,-114 0,35 0,21 0,0 137,0 0,0 0,0 1,-12 3,-29 1,-15 z"
           id="path2864"
           style="fill:#ffffff" />
      </g>
      <g
         transform="translate(8.443773,-1.0559656)"
         id="g3122">
        <g
           transform="translate(6,19)"
           id="g3082">
          <path
             d="m 475.10328,991.62917 -6.09784,1.96673 13.21365,4.27936 0,8.43024 -8.80581,2.8463 -7.43206,-2.4015 0,-8.26229 7.18499,2.32249 6.09785,-1.9667 -13.23342,-4.28925 -3.7951,1.23539 0,13.68806 11.17774,3.6172 12.56137,-4.062 0,-13.89555 z"
             id="path2924"
             style="fill:#231f20" />
          <path
             d="m 428.24165,992.50384 -0.73135,3.65674 14.88389,0 -0.46451,2.36206 -14.89377,0 -0.72146,3.65666 14.88388,0 -0.83017,4.1707 -5.99902,1.9865 -5.19849,-1.9865 0.35579,-1.8086 -3.65673,0 -0.86971,4.3881 8.59826,3.291 9.91271,-3.291 1.31445,-6.6019 0.26684,-1.3243 1.69001,-8.49945 z"
             id="path2956" />
          <path
             d="m 517.82886,995.7998 4.95141,-4.95142 h -5.3072 l -5.1392,5.13919 -5.14907,-5.13919 h -5.3072 l 4.95141,4.95142 h -6.7106 v 18.0762 h 3.52825 3.82475 1.47258 l 3.37012,-3.3702 3.37012,3.3702 h 1.95685 3.35036 3.52825 v -18.0762 h -6.69083 z m -5.50487,9.389 -4.92176,4.9316 h -3.52825 v -10.56504 h 16.90992 v 10.56504 h -3.52826 l -4.93165,-4.9316 z"
             id="path2972"
             style="fill:#231f20" />
          <path
             d="m 565.06608,997.50465 h -4.7241 c -1.93709,-4.6549 -6.55247,-7.8076 -11.68179,-7.8076 -6.97744,0 -12.66019,5.6729 -12.66019,12.66015 0,6.9874 5.68275,12.6701 12.66019,12.6701 5.12932,0 9.73483,-3.1428 11.68179,-7.8076 h 4.71422 v -9.71505 z m -3.75557,5.94955 h -12.65032 c -0.60286,0 -1.09701,-0.4843 -1.09701,-1.097 0,-0.6029 0.48427,-1.097 1.09701,-1.097 h 12.64044 v 2.194 z m -12.65032,7.8175 c -4.91187,0 -8.90463,-3.9927 -8.90463,-8.9046 0,-4.91185 3.99276,-8.90455 8.90463,-8.90455 3.04399,0 5.8409,1.5812 7.46172,4.052 h -7.46172 c -2.66842,0 -4.85257,2.1743 -4.85257,4.85255 0,2.6684 2.17427,4.8526 4.85257,4.8526 h 7.46172 c -1.61094,2.4707 -4.40784,4.052 -7.46172,4.052 z"
             id="path3004"
             style="fill:#231f20" />
        </g>
        <g
           id="g3113">
          <path
             d="m 527.87149,992.0894 h 3.74568 v -8.99363 l -4.22007,-4.2201 -2.64866,2.6487 3.12305,3.12303 v 7.442 z m 3.75557,1.8778 h -5.45546 -7.60995 l -3.12305,-3.1231 1.32433,-1.3243 2.57948,2.5794 h 5.3072 l -5.22813,-5.238 1.3342,-1.3342 5.22814,5.2282 v -5.3072 l -2.56959,-2.56963 1.31445,-1.3145 -6.49318,-6.5228 -6.40422,0 v 0 l -6.64142,0 3.7358,3.7358 v 0.01 h 0.0198 l 7.72855,0 2.73761,2.7376 -4.00264,4.00263 -2.73761,-2.73763 v -2.1248 h -3.74568 v 3.67653 l 6.48329,6.4833 -2.63878,2.6387 4.22007,4.2201 h 6.40419 11.96839 v 0 l -3.73579,-3.716 z"
             id="path2940"
             style="fill:#231f20" />
          <path
             d="m 455.05537,977.14127 -5.3072,0 -3.75556,3.7457 5.3072,0 z m -11.99803,3.7457 3.74568,-3.7457 -5.30721,0 -3.75556,3.7457 z m 8.25235,10.94053 -16.56401,0 0,-10.90103 3.7951,-3.7852 -5.31709,0 -2.22369,2.2237 0,16.21813 24.06526,0 0,-14.69613 -3.75557,0 z"
             id="path2988" />
          <path
             d="m 495.02241,984.1133 -3.96509,-1.64445 1.63269,-3.9424 c -0.41707,-0.5831 -0.86773,-1.1345 -1.36386,-1.6366 -0.0297,-0.032 -0.0593,-0.064 -0.0909,-0.096 -0.0504,-0.05 -0.10575,-0.099 -0.16109,-0.1502 -0.48526,-0.4764 -1.01895,-0.9083 -1.5813,-1.3135 l -3.94235,1.6307 -1.64355,-3.9641 c -1.4281,-0.2411 -2.86905,-0.247 -4.26355,-0.035 -0.0257,0 -0.0474,0 -0.0682,0.01 -0.0603,0.01 -0.1186,0.022 -0.17296,0.035 l -1.64355,3.9552 -3.96508,-1.6406 c -1.184,0.845 -2.21282,1.861 -3.05288,3.0084 -0.008,0.012 -0.0178,0.024 -0.0267,0.037 -0.0346,0.047 -0.0682,0.097 -0.1008,0.1473 l 1.63762,3.9532 -3.96409,1.64555 c -0.2372,1.4281 -0.24511,2.865 -0.0346,4.2586 0.003,0.025 0.005,0.051 0.01,0.075 0.007,0.058 0.0188,0.1146 0.0297,0.1719 l 3.95916,1.6386 -1.63763,3.9523 c 0.37655,0.5277 0.78274,1.0337 1.22452,1.4973 0.0781,0.082 0.1522,0.168 0.23423,0.249 0.0563,0.058 0.12057,0.1117 0.18085,0.168 0.47637,0.4635 1.00116,0.8836 1.55165,1.2779 l 3.95025,-1.6366 1.63862,3.9581 c 0.0583,0.012 0.12057,0.023 0.17987,0.037 0.0138,0 0.0316,8e-4 0.0465,0 1.40043,0.2155 2.84434,0.2086 4.28233,-0.031 l 1.64256,-3.965 3.9552,1.6386 c 0.0514,-0.031 0.1018,-0.065 0.15022,-0.1018 0.0148,-0.01 0.0297,-0.022 0.0465,-0.035 1.13755,-0.8361 2.15254,-1.86 2.99656,-3.041 l -1.64257,-3.9671 3.95915,-1.6386 c 0.01,-0.056 0.0227,-0.1166 0.0336,-0.1779 0.002,-0.018 0.002,-0.037 0.005,-0.054 0.21941,-1.3985 0.21348,-2.8394 -0.0257,-4.2734 z m -3.20409,2.9896 -4.17263,1.7286 0.006,0.016 -0.0138,0.01 1.72953,4.1706 c -0.32218,0.3756 -0.67303,0.7235 -1.05057,1.0506 l -4.17262,-1.7266 -0.005,0.014 -0.0138,-0.01 -1.72784,4.1712 c -0.49317,0.037 -0.98534,0.035 -1.48444,0 l -1.72953,-4.1726 -0.0118,0 -0.007,-0.016 -4.18548,1.7345 c -0.0435,-0.037 -0.0919,-0.069 -0.1354,-0.1097 -0.13836,-0.1226 -0.26882,-0.2619 -0.40026,-0.3954 -0.13145,-0.1314 -0.26882,-0.2579 -0.39434,-0.3973 -0.0365,-0.04 -0.0701,-0.091 -0.10772,-0.1354 l 1.73151,-4.1854 -0.0138,-0.01 0.007,-0.013 -4.17362,-1.7286 c -0.0326,-0.4981 -0.0356,-0.9932 0.003,-1.4844 l 4.16868,-1.72655 -0.004,-0.013 0.0118,-0.01 -1.73151,-4.1766 c 0.32713,-0.3765 0.676,-0.7284 1.04958,-1.0496 l 4.17262,1.7266 0.005,-0.012 0.0118,0 1.72954,-4.1726 c 0.49811,-0.035 0.99226,-0.035 1.48543,0 l 1.72657,4.1726 0.0178,0.01 4.17263,-1.7285 c 0.18086,0.1591 0.3548,0.3291 0.52973,0.5 0.17592,0.1789 0.35184,0.3588 0.5159,0.5495 l -1.72657,4.1707 0.0138,0.01 -0.006,0.016 4.17164,1.72655 c 0.0435,0.4931 0.0445,0.9883 0.008,1.4844 z m -6.6602,-2.1871 -0.006,-0.012 1.01103,-2.43315 c -0.1848,-0.2184 -0.39235,-0.421 -0.61175,-0.6157 l -2.43716,1.0081 -0.003,-0.01 -0.008,0 -1.00807,-2.4352 c -0.2876,-0.023 -0.57618,-0.023 -0.86674,0 l -1.00907,2.4342 -0.007,0 -0.004,0 -2.43618,-1.0051 c -0.21743,0.1848 -0.42003,0.3894 -0.61571,0.6078 l 1.01104,2.43805 -0.008,0 0.003,0.01 -2.44409,1.014 c -0.003,0.031 -0.008,0.067 -0.01,0.099 -0.005,0.1078 -7.3e-4,0.2184 -0.002,0.3272 0,0.1077 -0.004,0.2194 0.005,0.3281 0,0.034 0.002,0.067 0.008,0.1018 l 2.44409,1.012 0,0.011 0.005,0 -1.00708,2.4362 c 0.1858,0.2174 0.39334,0.42 0.61374,0.6078 l 2.43419,-1.0081 0.002,0.01 0.009,0 1.00906,2.4362 c 0.29254,0.023 0.58113,0.023 0.86773,0 l 1.00807,-2.4362 0.008,0 0.005,-0.01 2.4342,1.0061 c 0.2194,-0.1878 0.422,-0.3924 0.61176,-0.6098 l -1.00807,-2.4342 0.007,-0.01 -0.003,-0.01 2.4342,-1.0081 c 0.01,-0.1462 0.0118,-0.2964 0.0138,-0.4398 0,-0.1423 -0.002,-0.2856 -0.0118,-0.4249 l -2.43815,-1.0061 z m -3.50255,3.0895 c -0.90727,0 -1.64356,-0.7353 -1.64356,-1.6436 0,-0.9072 0.7353,-1.6435 1.64356,-1.6435 0.90825,0 1.64355,0.7353 1.64355,1.6435 0,0.9073 -0.73628,1.6436 -1.64355,1.6436 z"
             id="path3020" />
          <g
             transform="matrix(0.09883062,0,0,0.09883062,546.24027,973.71319)"
             id="g3050">
            <polygon
               points="0,107.32 128.106,42.577 256.155,107.32 256.155,64.744 128.106,0 0,64.744 "
               id="chevron"
               style="fill:#000000" />
            <use
               id="use3037"
               x="0"
               y="74.316002"
               width="1"
               height="1"
               xlink:href="#chevron" />
            <use
               id="use3039"
               x="0"
               y="148.653"
               width="1"
               height="1"
               xlink:href="#chevron" />
          </g>
        </g>
      </g>
    </g>
    <g
       transform="translate(-3.640625,955.118)"
       id="flowRoot3933"
       style="font-size:64px;font-style:normal;font-variant:normal;font-weight:normal;font-stretch:normal;text-align:start;line-height:60.00000238%;writing-mode:lr-tb;text-anchor:start;fill:#000000;fill-opacity:1;stroke:none;font-family:Cordia New;-inkscape-font-specification:Cordia New">
      <path
         d="m 19.640625,40.895742 0,-30.015625 11.53125,0 c 2.885399,3e-5 5.289042,0.679717 7.210937,2.039063 1.921851,1.359401 3.315079,3.174504 4.179688,5.445312 0.864556,2.270854 1.296847,4.718768 1.296875,7.34375 -2.8e-5,4.802094 -1.112006,8.533861 -3.335938,11.195313 -2.22398,2.661459 -5.341165,3.992187 -9.351562,3.992187 z m 2.84375,-27.5 0,24.984375 7.0625,0 c 1.729151,3e-6 3.205712,-0.140622 4.429687,-0.421875 1.22394,-0.281247 2.395813,-0.937496 3.515625,-1.96875 1.11977,-1.031244 1.966123,-2.414055 2.539063,-4.148437 0.572892,-1.734364 0.85935,-3.846342 0.859375,-6.335938 C 40.8906,17.432224 37.109354,13.39577 29.546875,13.395742 z"
         id="path3950" />
      <path
         d="m 67.5,40.895742 -2.78125,0 c -0.406268,-1.020832 -0.671893,-2.124998 -0.796875,-3.3125 -2.354182,2.531251 -5.317721,3.796875 -8.890625,3.796875 -1.302091,0 -2.466152,-0.226563 -3.492188,-0.679687 -1.026045,-0.453125 -1.846357,-1.132811 -2.460937,-2.039063 -0.614586,-0.906247 -0.921877,-2.010412 -0.921875,-3.3125 -2e-6,-0.91666 0.143227,-1.736972 0.429687,-2.460937 0.286456,-0.72395 0.721352,-1.359366 1.304688,-1.90625 0.583329,-0.546865 1.369787,-1.015614 2.359375,-1.40625 0.989576,-0.390614 2.770825,-0.763009 5.34375,-1.117188 2.864569,-0.39582 4.890609,-0.817695 6.078125,-1.265625 -1.7e-5,-1.239568 -0.03387,-2.192692 -0.101563,-2.859375 -0.06773,-0.666649 -0.299496,-1.291649 -0.695312,-1.875 -0.39585,-0.583314 -1.005224,-1.03123 -1.828125,-1.34375 C 60.223944,20.802012 59.20832,20.645762 58,20.645742 c -3.760425,2e-5 -6.020839,1.609394 -6.78125,4.828125 L 48.625,25.083242 c 0.80208,-4.28123 3.921869,-6.421853 9.359375,-6.421875 1.70832,2.2e-5 3.143214,0.195335 4.304687,0.585938 1.161442,0.390646 2.026024,0.942729 2.59375,1.65625 0.56769,0.713561 0.937481,1.596372 1.109375,2.648437 0.171856,1.0521 0.257793,2.500015 0.257813,4.34375 l -0.07813,6.125 c -0.02085,1.635422 0.05467,2.890629 0.226562,3.765625 0.171855,0.875002 0.539042,1.91146 1.101563,3.109375 z m -3.828125,-10.28125 0,-1.40625 c -1.447933,0.552095 -3.739597,1.098969 -6.875,1.640625 -1.656259,0.291677 -2.867195,0.591156 -3.632813,0.898438 -0.765631,0.3073 -1.343755,0.752612 -1.734375,1.335937 -0.390629,0.583341 -0.585942,1.27084 -0.585937,2.0625 -5e-6,1.187505 0.440099,2.143233 1.320312,2.867188 0.880202,0.72396 2.013013,1.085939 3.398438,1.085937 0.81249,2e-6 1.614572,-0.106769 2.40625,-0.320312 0.791654,-0.21354 1.567695,-0.531248 2.328125,-0.953125 0.760402,-0.421872 1.395818,-0.932288 1.90625,-1.53125 0.5104,-0.598953 0.882796,-1.367182 1.117187,-2.304688 0.234358,-0.937492 0.351546,-2.062491 0.351563,-3.375 z"
         id="path3952" />
      <path
         d="m 90,19.145742 -8.703125,21.75 -2.375,0 -8.703125,-21.75 2.71875,0 7.15625,18.625 7.203125,-18.625 z"
         id="path3954" />
      <path
         d="m 111.95313,30.348867 -16.73438,0 c 0.04166,2.812508 0.705724,5.007818 1.992187,6.585938 1.286451,1.578127 3.065093,2.367189 5.335943,2.367187 3.16665,2e-6 5.38019,-1.760413 6.64062,-5.28125 l 2.5,0.421875 c -0.85419,2.479171 -2.0495,4.255211 -3.58594,5.328125 -1.53647,1.072917 -3.44012,1.609375 -5.71093,1.609375 -3.07293,0 -5.479178,-1.015624 -7.218755,-3.046875 -1.739586,-2.031245 -2.609377,-4.802076 -2.609375,-8.3125 -2e-6,-3.510402 0.874997,-6.281233 2.625,-8.3125 1.749994,-2.031229 4.166658,-3.046853 7.25,-3.046875 6.29165,2.2e-5 9.46352,3.895852 9.51563,11.6875 z m -2.76563,-2.109375 c -0.39585,-5.020815 -2.66668,-7.53123 -6.8125,-7.53125 -1.88543,2e-5 -3.471362,0.651061 -4.757813,1.953125 -1.286464,1.302101 -2.0599,3.161474 -2.320312,5.578125 z"
         id="path3956" />
      <path
         d="m 120.09375,15.770742 -0.60937,5.484375 -1.79688,0 -0.60937,-5.484375 0,-4.890625 3.01562,0 z"
         id="path3958" />
      <path
         d="m 124.9375,35.005117 2.59375,-0.421875 c 0.38541,1.656255 1.13541,2.859379 2.25,3.609375 1.11458,0.750002 2.48957,1.125002 4.125,1.125 1.12499,2e-6 2.12759,-0.187498 3.00781,-0.5625 0.8802,-0.374997 1.54947,-0.867184 2.00781,-1.476562 0.45832,-0.609371 0.68749,-1.335933 0.6875,-2.179688 -1e-5,-0.770827 -0.26043,-1.432284 -0.78125,-1.984375 -0.52084,-0.552075 -1.21616,-0.984366 -2.08593,-1.296875 -0.86981,-0.31249 -2.10158,-0.635407 -3.69532,-0.96875 -4.95833,-1.041655 -7.4375,-3.072903 -7.43749,-6.09375 -1e-5,-1.885398 0.73176,-3.372376 2.19531,-4.460937 1.46353,-1.08852 3.29947,-1.632791 5.50781,-1.632813 4.39582,2.2e-5 7.08332,1.916687 8.0625,5.75 l -2.5,0.375 c -0.46877,-1.531232 -1.10158,-2.585919 -1.89844,-3.164062 -0.79689,-0.578105 -2.00261,-0.867168 -3.61719,-0.867188 -1.02084,2e-5 -1.9375,0.153666 -2.75,0.460938 -0.8125,0.307311 -1.41927,0.716165 -1.82031,1.226562 -0.40104,0.510435 -0.60156,1.119809 -0.60156,1.828125 0,0.708349 0.18229,1.309911 0.54687,1.804688 0.36458,0.494806 1.07031,0.940118 2.11719,1.335937 1.04687,0.395847 2.38281,0.781263 4.00781,1.15625 3.08332,0.708345 5.09374,1.570324 6.03125,2.585938 0.93749,1.015633 1.40624,2.210945 1.40625,3.585937 -1e-5,1.385422 -0.33595,2.565108 -1.00781,3.539063 -0.67189,0.97396 -1.65106,1.739584 -2.9375,2.296875 -1.28647,0.557291 -2.79949,0.835937 -4.53906,0.835937 -1.11459,0 -2.13022,-0.106771 -3.04688,-0.320312 -0.91667,-0.213542 -1.75,-0.544271 -2.5,-0.992188 -0.75,-0.447915 -1.40625,-1.052081 -1.96874,-1.8125 -0.56251,-0.760413 -1.01563,-1.854162 -1.35938,-3.28125 z"
         id="path3960" />
      <path
         d="m 192.70312,10.880117 -8.0625,30.015625 -2.82812,0 -7.20313,-26.84375 -7.375,26.84375 -2.79687,0 -8,-30.015625 2.90625,0 6.5,26 6.98437,-26 3.46875,0 6.95313,25.84375 6.71875,-25.84375 z"
         id="path3962" />
      <path
         d="m 214.57812,30.348867 -16.73437,0 c 0.0417,2.812508 0.70572,5.007818 1.99219,6.585938 1.28645,1.578127 3.06509,2.367189 5.33593,2.367187 3.16666,2e-6 5.3802,-1.760413 6.64063,-5.28125 l 2.5,0.421875 c -0.85419,2.479171 -2.0495,4.255211 -3.58594,5.328125 -1.53647,1.072917 -3.44012,1.609375 -5.71094,1.609375 -3.07292,0 -5.47917,-1.015624 -7.21875,-3.046875 -1.73958,-2.031245 -2.60937,-4.802076 -2.60937,-8.3125 0,-3.510402 0.875,-6.281233 2.625,-8.3125 1.74999,-2.031229 4.16666,-3.046853 7.25,-3.046875 6.29165,2.2e-5 9.46352,3.895852 9.51562,11.6875 z m -2.76562,-2.109375 c -0.39585,-5.020815 -2.66668,-7.53123 -6.8125,-7.53125 -1.88543,2e-5 -3.47136,0.651061 -4.75781,1.953125 -1.28647,1.302101 -2.0599,3.161474 -2.32032,5.578125 z"
         id="path3964" />
      <path
         d="m 222.54687,37.598867 0,3.296875 -2.54687,0 0,-30.015625 2.54687,0 0,11.8125 c 2.17708,-2.687479 4.90624,-4.031228 8.1875,-4.03125 3.0729,2.2e-5 5.4479,1.057313 7.125,3.171875 1.67707,2.114601 2.51561,4.781265 2.51563,8 -2e-5,3.479174 -0.86981,6.273443 -2.60938,8.382813 -1.7396,2.109375 -4.16147,3.164062 -7.26562,3.164062 -3.18751,0 -5.83855,-1.260416 -7.95313,-3.78125 z m 15.1875,-7.53125 c -2e-5,-2.70832 -0.64845,-4.932276 -1.94531,-6.671875 -1.29689,-1.739564 -3.08074,-2.609355 -5.35156,-2.609375 -2.47918,2e-5 -4.41928,0.854186 -5.82031,2.5625 -1.40105,1.708349 -2.10157,4.046889 -2.10157,7.015625 0,2.760425 0.69271,4.934902 2.07813,6.523438 1.38541,1.588544 3.28124,2.382814 5.6875,2.382812 1.14582,2e-6 2.17186,-0.218748 3.07812,-0.65625 0.90624,-0.437497 1.69269,-1.093746 2.35938,-1.96875 0.66665,-0.874995 1.16925,-1.861973 1.50781,-2.960937 0.33852,-1.09895 0.50779,-2.304678 0.50781,-3.617188 z"
         id="path3966" />
      <path
         d="m 39.59375,79.295744 -19.8125,0 0,-30.015625 19.1875,0 0,2.53125 -16.328125,0 0,10.78125 15.109375,0 0,2.46875 -15.109375,0 0,11.75 16.953125,0 z"
         id="path3968" />
      <path
         d="m 62.21875,79.295744 -3.15625,0 -6.9375,-9.453125 -6.953125,9.453125 -3.203125,0 8.671875,-11.34375 -8.046875,-10.40625 3.1875,0 6.34375,8.34375 6.3125,-8.34375 3.171875,0 -8.046875,10.15625 z"
         id="path3970" />
      <path
         d="m 68.546875,75.998869 0,11.609375 -2.546875,0 0,-30.0625 2.546875,0 0,3.546875 c 2.239575,-2.687479 4.963531,-4.031228 8.171875,-4.03125 1.437484,2.2e-5 2.726546,0.231793 3.867187,0.695312 1.140606,0.463563 2.14321,1.177104 3.007813,2.140625 0.864562,0.96356 1.544248,2.156268 2.039062,3.578125 0.494769,1.42189 0.742164,3.007826 0.742188,4.757813 -2.4e-5,3.479174 -0.869815,6.273442 -2.609375,8.382812 -1.739603,2.109376 -4.161475,3.164062 -7.265625,3.164063 -3.187511,-10e-7 -5.83855,-1.260416 -7.953125,-3.78125 z m 15.1875,-7.53125 c -2.1e-5,-1.885404 -0.312521,-3.531236 -0.9375,-4.9375 -0.62502,-1.406233 -1.468769,-2.476544 -2.53125,-3.210938 -1.062517,-0.734355 -2.338557,-1.101542 -3.828125,-1.101562 -1.229179,2e-5 -2.322928,0.203145 -3.28125,0.609375 -0.958343,0.406269 -1.789071,1.02606 -2.492188,1.859375 -0.703132,0.83335 -1.236985,1.843766 -1.601562,3.03125 -0.364589,1.187513 -0.546881,2.53647 -0.546875,4.046875 -6e-6,2.760424 0.692702,4.934901 2.078125,6.523437 1.385407,1.588544 3.281239,2.382814 5.6875,2.382813 1.145819,10e-7 2.171859,-0.218748 3.078125,-0.65625 0.906232,-0.437498 1.69269,-1.093747 2.359375,-1.96875 0.666647,-0.874995 1.169251,-1.861973 1.507812,-2.960938 0.338521,-1.09895 0.507792,-2.304678 0.507813,-3.617187 z"
         id="path3972" />
      <path
         d="m 109.57813,68.748869 -16.73438,0 c 0.04166,2.812508 0.705724,5.007818 1.992187,6.585937 1.286451,1.578128 3.065095,2.367189 5.335943,2.367188 3.16665,10e-7 5.38019,-1.760414 6.64062,-5.28125 l 2.5,0.421875 c -0.85419,2.47917 -2.0495,4.25521 -3.58594,5.328125 -1.53647,1.072916 -3.44012,1.609374 -5.71093,1.609375 -3.07293,-10e-7 -5.479178,-1.015625 -7.218755,-3.046875 -1.739586,-2.031246 -2.609377,-4.802076 -2.609375,-8.3125 -2e-6,-3.510403 0.874997,-6.281233 2.625,-8.3125 1.749994,-2.031229 4.166658,-3.046853 7.25,-3.046875 6.29165,2.2e-5 9.46352,3.895851 9.51563,11.6875 z m -2.76563,-2.109375 c -0.39585,-5.020816 -2.66668,-7.53123 -6.8125,-7.53125 -1.885427,2e-5 -3.471362,0.651061 -4.757813,1.953125 -1.286464,1.3021 -2.0599,3.161473 -2.320312,5.578125 z"
         id="path3974" />
      <path
         d="m 126.14063,58.373869 -0.98438,2.203125 c -1.31251,-0.552064 -2.28647,-0.828106 -2.92187,-0.828125 -0.51043,1.9e-5 -0.97658,0.08075 -1.39844,0.242187 -0.42189,0.161478 -0.82032,0.41929 -1.19531,0.773438 -0.37501,0.354185 -0.69793,0.765643 -0.96875,1.234375 -0.27085,0.468767 -0.47397,0.986995 -0.60938,1.554687 -0.13542,0.567724 -0.26042,1.406265 -0.375,2.515625 -0.11459,1.109387 -0.17188,2.111991 -0.17187,3.007813 l 0,10.21875 -2.54688,0 0,-21.75 2.25,0 0,4.40625 c 1.07291,-3.260396 2.76562,-4.890603 5.07813,-4.890625 1.18748,2.2e-5 2.46873,0.437522 3.84375,1.3125 z"
         id="path3976" />
      <path
         d="m 131.5,53.108244 -2.5625,0 0,-3.828125 2.5625,0 z m 0,26.1875 -2.5625,0 0,-21.75 2.5625,0 z"
         id="path3978" />
      <path
         d="m 166.59375,79.295744 -2.54688,0 0,-13.46875 c -2e-5,-1.989568 -0.16148,-3.382796 -0.48437,-4.179688 -0.32294,-0.796856 -0.82815,-1.395814 -1.51563,-1.796875 -0.68752,-0.401022 -1.50523,-0.601542 -2.45312,-0.601562 -1.33336,2e-5 -2.45054,0.372415 -3.35156,1.117187 -0.90106,0.74481 -1.53648,1.765642 -1.90625,3.0625 -0.36981,1.29689 -0.55471,3.018242 -0.55469,5.164063 l 0,10.703125 -2.54688,0 0,-13.734375 c -1e-5,-1.510402 -0.12762,-2.692692 -0.38281,-3.546875 -0.25522,-0.854149 -0.71876,-1.515606 -1.39062,-1.984375 -0.67189,-0.46873 -1.52345,-0.703105 -2.55469,-0.703125 -1.82293,2e-5 -3.28126,0.752623 -4.375,2.257812 -1.09376,1.505225 -1.64063,3.544285 -1.64063,6.117188 l 0,11.59375 -2.54687,0 0,-21.75 2.54687,0 0,3.140625 c 1.8125,-2.416646 4.03125,-3.624978 6.65625,-3.625 2.77082,2.2e-5 4.6979,1.208354 5.78125,3.625 1.93748,-2.416646 4.20832,-3.624978 6.8125,-3.625 4.30206,2.2e-5 6.4531,2.479186 6.45313,7.4375 z"
         id="path3980" />
      <path
         d="m 191.20312,68.748869 -16.73437,0 c 0.0417,2.812508 0.70572,5.007818 1.99219,6.585937 1.28645,1.578128 3.06509,2.367189 5.33593,2.367188 3.16666,10e-7 5.3802,-1.760414 6.64063,-5.28125 l 2.5,0.421875 c -0.85419,2.47917 -2.0495,4.25521 -3.58594,5.328125 -1.53647,1.072916 -3.44012,1.609374 -5.71094,1.609375 -3.07292,-10e-7 -5.47917,-1.015625 -7.21875,-3.046875 -1.73958,-2.031246 -2.60937,-4.802076 -2.60937,-8.3125 0,-3.510403 0.875,-6.281233 2.625,-8.3125 1.74999,-2.031229 4.16666,-3.046853 7.25,-3.046875 6.29165,2.2e-5 9.46352,3.895851 9.51562,11.6875 z m -2.76562,-2.109375 c -0.39585,-5.020816 -2.66668,-7.53123 -6.8125,-7.53125 -1.88543,2e-5 -3.47136,0.651061 -4.75781,1.953125 -1.28647,1.3021 -2.0599,3.161473 -2.32032,5.578125 z"
         id="path3982" />
      <path
         d="m 213.42187,79.295744 -2.57812,0 0,-13.5 c -2e-5,-2.343734 -0.45314,-4.013004 -1.35938,-5.007813 -0.90626,-0.994772 -2.13543,-1.492167 -3.6875,-1.492187 -0.83334,2e-5 -1.61199,0.140645 -2.33593,0.421875 -0.72397,0.281269 -1.39324,0.700539 -2.00782,1.257812 -0.61459,0.55731 -1.10156,1.200538 -1.46093,1.929688 -0.35938,0.729182 -0.60938,1.526056 -0.75,2.390625 -0.14063,0.864596 -0.21095,2.390636 -0.21094,4.578125 l 0,9.421875 -2.5625,0 0,-21.75 2.5625,0 0,3.21875 c 1.94791,-2.468729 4.28124,-3.703103 7,-3.703125 4.92707,2.2e-5 7.3906,2.682311 7.39062,8.046875 z"
         id="path3984" />
      <path
         d="m 227.92187,79.295744 c -1.11459,0.229166 -2.01563,0.343749 -2.70312,0.34375 -0.98959,-10e-7 -1.83855,-0.161459 -2.54688,-0.484375 -0.70833,-0.322916 -1.23698,-0.820312 -1.58593,-1.492188 -0.34896,-0.671872 -0.52344,-1.872392 -0.52344,-3.601562 l 0,-14.578125 -3.03125,0 0,-1.9375 3.03125,0 0,-5.5625 2.57812,-1.640625 0,7.203125 4.09375,0 0,1.9375 -4.09375,0 0,14.25 c 0,1.010421 0.0651,1.768233 0.19532,2.273437 0.1302,0.505211 0.3828,0.880211 0.75781,1.125 0.37499,0.244794 0.86978,0.36719 1.48437,0.367188 0.46875,2e-6 1.14062,-0.08854 2.01563,-0.265625 z"
         id="path3986" />
      <path
         d="m 229.8125,73.405119 2.59375,-0.421875 c 0.38541,1.656254 1.13541,2.859378 2.25,3.609375 1.11458,0.750002 2.48957,1.125001 4.125,1.125 1.12499,10e-7 2.12759,-0.187498 3.00781,-0.5625 0.8802,-0.374998 1.54947,-0.867185 2.00781,-1.476563 0.45832,-0.609371 0.68749,-1.335932 0.6875,-2.179687 -1e-5,-0.770827 -0.26043,-1.432285 -0.78125,-1.984375 -0.52084,-0.552075 -1.21616,-0.984366 -2.08593,-1.296875 -0.86981,-0.312491 -2.10158,-0.635407 -3.69532,-0.96875 -4.95833,-1.041656 -7.4375,-3.072904 -7.4375,-6.09375 0,-1.885399 0.73177,-3.372377 2.19532,-4.460938 1.46353,-1.08852 3.29947,-1.63279 5.50781,-1.632812 4.39582,2.2e-5 7.08332,1.916687 8.0625,5.75 l -2.5,0.375 c -0.46877,-1.531233 -1.10158,-2.585919 -1.89844,-3.164063 -0.79689,-0.578105 -2.00261,-0.867167 -3.61719,-0.867187 -1.02084,2e-5 -1.9375,0.153666 -2.75,0.460937 -0.8125,0.307311 -1.41927,0.716165 -1.82031,1.226563 -0.40104,0.510434 -0.60156,1.119809 -0.60156,1.828125 0,0.708349 0.18229,1.309911 0.54687,1.804687 0.36458,0.494806 1.07031,0.940118 2.11719,1.335938 1.04687,0.395846 2.38281,0.781262 4.00781,1.15625 3.08332,0.708345 5.09374,1.570323 6.03125,2.585937 0.93749,1.015634 1.40624,2.210945 1.40625,3.585938 -1e-5,1.385421 -0.33595,2.565108 -1.00781,3.539062 -0.67189,0.97396 -1.65106,1.739584 -2.9375,2.296875 -1.28647,0.557292 -2.79949,0.835937 -4.53906,0.835938 -1.11459,-10e-7 -2.13022,-0.106771 -3.04688,-0.320313 -0.91667,-0.213541 -1.75,-0.54427 -2.5,-0.992187 -0.75,-0.447916 -1.40625,-1.052082 -1.96875,-1.8125 -0.5625,-0.760414 -1.01562,-1.854162 -1.35937,-3.28125 z"
         id="path3988" />
    </g>
  </g>
</svg>
