<?xml version="1.0" encoding="utf-8"?>
<!-- Generator: Adobe Illustrator 12.0.1, SVG Export Plug-In . SVG Version: 6.00 Build 51448)  -->
<!DOCTYPE svg PUBLIC "-//W3C//DTD SVG 1.1//EN" "http://www.w3.org/Graphics/SVG/1.1/DTD/svg11.dtd" [
	<!ENTITY ns_svg "http://www.w3.org/2000/svg">
	<!ENTITY ns_xlink "http://www.w3.org/1999/xlink">
]>
<svg  version="1.1" id="Layer_1" xmlns="&ns_svg;" xmlns:xlink="&ns_xlink;" width="499" height="490" viewBox="0 0 499 490"
	 overflow="visible" enable-background="new 0 0 499 490" xml:space="preserve">
<g>
	<path fill-rule="evenodd" clip-rule="evenodd" fill="#DC75AE" d="M389,98c-4.713,21.92-16.895,40.387-28,58
		c-10.832,17.179-20.28,36.621-36,47c-2.135-34.199-12.293-60.374-13-96c9.39-0.432,17.021,2.578,23-2
		c-1.263-23.124-21.264-48.309-44-34c-0.988,3.989,2.988,3.011,2,7c-8.933-13.141-12.506-29.622-27-38
		c-9.736-5.628-24.513-5.886-37-8c36.857-10.475,78.693-15.974,114-28c6.881,4.269,9.362,17.457,13,29
		C363.562,56.993,374.393,80.327,389,98z"/>
	<path fill-rule="evenodd" clip-rule="evenodd" fill="#DC75AE" d="M174,35c37.993,18.007,100.642,11.359,94,74
		c-14.051-0.283-18.966-9.7-27-16c4.724-17.711-1.7-22.345-15-30c-11.035-6.351-18.857-14.218-25,2c-5.087-0.246-6.343-4.323-10-6
		c-4.228,13.439-11.519,23.814-18,35c-0.334,8.667,5.03,11.636,4,21c-9.731-4.269-14.875-13.125-26-16
		C159.952,78.952,167.423,57.423,174,35z"/>
	<path fill-rule="evenodd" clip-rule="evenodd" fill="#DC75AE" d="M276,107c-4.165-10.375-2.016-24.155-8-35
		c-11.409-20.675-37.422-25.617-64-31c44.437-11.41,77.762,7.691,82,42C287.521,95.309,286.405,105.058,276,107z"/>
	<path fill-rule="evenodd" clip-rule="evenodd" fill="#DC75AE" d="M160,58c-4.145,9.188-4.607,22.06-13,27
		c-19.379-6.302-24.679,2.34-32,16c-4.054,7.565-9.271,15.465-8,21c11.74,2.764,32.464-11.392,33,11
		c-26.036,3.729-46.969,21.301-45,46c1.348,16.912,15.048,10.939,28,15c7.785,2.441,15.969,14.485,23,21
		c8.676,8.039,17.589,14.934,22,22c-14.166,13.368-31.996-3.498-48-1c-5.783,0.902-12.055,7.958-18,8
		c-7.743,0.055-23.03-12.326-31-17c-18.232-10.692-34.672-12.931-49-25c9.207-30.18,19.562-79.462,2-108
		c9.575-6.758,24.945-7.722,36-13c-0.55-8.461-14.475-8.845-14-15c26.355-4.305,65.735-19,91-24
		C147.978,39.828,153.347,52.609,160,58z"/>
	<path fill-rule="evenodd" clip-rule="evenodd" fill="#DC75AE" d="M219,73c-4.739-0.594-9.848-0.819-13-3
		C204.407,54.705,225.268,60.242,219,73z"/>
	<path fill-rule="evenodd" clip-rule="evenodd" fill="#DC75AE" d="M193,67c8.214,2.786,11.741,10.259,22,11
		C209.961,99.152,189.362,85.877,193,67z"/>
	<path fill-rule="evenodd" clip-rule="evenodd" fill="#DC75AE" d="M228,71c4.508,0.474,2.272,4.713,2,8
		C227.712,78.555,225.473,72.95,228,71z"/>
	<path fill-rule="evenodd" clip-rule="evenodd" fill="#DC75AE" d="M329,101c-61.688-6.066-55.729,63.392-97,81
		c-4.195-0.805-6.485-3.515-11-4c22.907-32.823,67.604-51.839,76-104C315.391,67.674,324.504,86.873,329,101z"/>
	<path fill-rule="evenodd" clip-rule="evenodd" fill="#DC75AE" d="M235,75c2.898,3.616,0.289,10.25-3,11
		C226.675,81.924,235.31,80.062,235,75z"/>
	<path fill-rule="evenodd" clip-rule="evenodd" fill="#DC75AE" d="M187,77c2.799,3.201,4.1,7.9,6,12c-3.667,0-7.333,0-11,0
		C182.851,84.184,185.221,80.888,187,77z"/>
	<path fill-rule="evenodd" clip-rule="evenodd" fill="#DC75AE" d="M222,79c7.008,4.086-0.204,12.615-8,11
		C216.632,86.299,220.027,83.36,222,79z"/>
	<path fill-rule="evenodd" clip-rule="evenodd" fill="#DC75AE" d="M147,89c1.579,6.882-4.961,9.955-2,15
		c11.603,1.064,16.527,8.807,25,13c-17.378-1.286-40.069-2.491-58,2C120.227,104.773,121.786,80.597,147,89z"/>
	<path fill-rule="evenodd" clip-rule="evenodd" fill="#DC75AE" d="M254,110c-12.502,6.461-30.501-3.323-44,0
		c-8.442,2.078-8.025,9.235-15,13c-3.845-1.822-8.277-3.056-12-5c1.448-10.448-5.448-12.552-4-23c15.573-5.046,39.528,5.694,54-3
		C240.329,97.671,244.03,106.97,254,110z"/>
	<path fill-rule="evenodd" clip-rule="evenodd" fill="#DC75AE" d="M476,99c3.971,6.447-4.67,17.225-8,23
		c6.087,8.598,14.397-1.566,25,0c-7.783,22.752-26.215,47.914-34,75c-3.382,11.765-3.376,31.964-11,39
		c-5.876,5.423-17.553,6.212-25,9c-8.523,3.19-15.592,7.063-25,8c0.8-19.8-0.888-37.112-11-46c-23.452-2.922-41.641,11.94-60,14
		c-7.17-12.219,5.172-19.99,13-29c5.759-6.628,11.51-12.096,15-17c13.754-19.326,19.24-34.331,29-49c14.678-7.746,28.026-3.965,43-6
		C446.14,117.398,457.576,99.615,476,99z"/>
	<path fill-rule="evenodd" clip-rule="evenodd" fill="#DC75AE" d="M318,215c-26.475-9.192-53.228-18.106-78-29
		c5.531-10.014,15.142-14.739,22-24c15.44-20.851,17.394-42.454,44-54C307.859,145.216,321.022,176.208,318,215z"/>
	<path fill-rule="evenodd" clip-rule="evenodd" fill="#DC75AE" d="M273,113c2.33,3.188-6.8,11.726-11,15
		c-21.273,2.533-42.659-13.233-58-1c-1.493,17.84-8.575,30.092-15,43c-6.342,2.658-16.033,1.967-25,2
		c-0.977-3.656,5.812-8.199,10-13c3.948-4.526,8.116-9.602,12-15c4.704-6.537,13.88-27.799,24-30
		C228.018,110.082,253.993,124.514,273,113z"/>
	<path fill-rule="evenodd" clip-rule="evenodd" fill="#DC75AE" d="M141,120c19.519-0.801,34.86,3.162,45,14
		c-10.691,14.976-17.203,34.13-37,40C150.712,151.621,147.007,134.66,141,120z"/>
	<path fill-rule="evenodd" clip-rule="evenodd" fill="#DC75AE" d="M257,133c-12.875,15.458-29.965,26.702-42,43
		c-10.145,1.811-13.382-3.284-21-4c6.047-12.953,13.624-24.376,15-42C224.584,122.547,239.398,133.479,257,133z"/>
	<path fill-rule="evenodd" clip-rule="evenodd" fill="#DC75AE" d="M142,138c3.31,8.611,2.121,23.894,1,34
		c-14.708-0.377-29.249-3.542-32-13C107.554,147.153,125.675,137.729,142,138z"/>
	<path fill-rule="evenodd" clip-rule="evenodd" fill="#DC75AE" d="M104,161c14.984,28.882,71.941,9.788,101,21
		c-11.199,16.866-45.348,4.74-74,6c-12.417,0.546-21.681,2.169-30-4C100.412,174.745,101.765,167.431,104,161z"/>
	<path fill-rule="evenodd" clip-rule="evenodd" fill="#DC75AE" d="M216,183c7.172-0.827,17.066,4.258,22,9
		c29.6,12.401,64.409,19.591,90,36c-16.226,11.441-45.367,9.966-72,11C248.755,214.244,234.103,196.897,216,183z"/>
	<path fill-rule="evenodd" clip-rule="evenodd" fill="#DC75AE" d="M249,244c10.189,1.248,24.989-0.81,38,0
		c-9.56,5.774-18.462,12.205-26,20c-18.709-5.778-39.209,1.773-54-3c-32.811-10.59-47.323-50.284-75-66
		c20.648-3.952,41.193,4.71,60,1c5.812-1.146,11.372-7.864,17-8c10.741-0.259,21.325,15.494,26,22
		C242.817,220.879,247.437,229.999,249,244z"/>
	<path fill-rule="evenodd" clip-rule="evenodd" fill="#DC75AE" d="M388,314c-12.854,1.521-16.562-6.105-23-11
		c-0.628-17.706-7.385-29.281-19-36c-15.101,6.866-28.427-1.523-42-3c-11.092-1.207-21.898,4.011-35,2
		c15.68-16.654,37.095-27.572,66-31c2.676-3.406-0.195-7.948-1-11c11.388-3.585,30.395-9.184,41-14c12.318-5.594,17.1,16.673,18,27
		C395.232,262.6,387.275,288.569,388,314z"/>
	<path fill-rule="evenodd" clip-rule="evenodd" fill="#DC75AE" d="M199,264c-9.4,12.934-21.818,22.849-28,39
		c1.371,18.82,55.755,7.437,58,25c0.693,5.424-10.61,16.504-14,21c-6.106,8.101-10.411,13.213-15,20
		c-30.125-10.944-84.355-21.769-112-1c-7.35-27.463-26.243-36.015-51-48c-9.387-4.545-21.976-4.412-28-13
		c15.951-6.03,28.905-19.361,38-33c6.754-10.128,13.953-38.625,31-37c9.666,0.922,15.119,12.33,25,12c7.682-0.257,14.764-9.444,24-9
		c8.764,0.421,16.922,9.922,33,7c3.634-0.66,7.787-4.404,11-4C181.724,244.349,185.093,263.219,199,264z"/>
	<path fill-rule="evenodd" clip-rule="evenodd" d="M445,256c0.529,0.804,1.043,1.623,1,3c-8.281,4.719-15.938,10.062-25,14
		C424.393,262.727,436.354,261.021,445,256z"/>
	<path fill-rule="evenodd" clip-rule="evenodd" fill="#DC75AE" d="M305,269c8.557,4.777,13.952,12.715,18,22
		c-8.815,8.697-21.555,14.201-34,20c-12.222,5.695-26.721,13.469-41,13c-11.281-0.371-23.189-7.894-35-11
		c-12.565-3.305-25.354-2.693-36-9c8.079-11.604,11.177-24.833,22-32C225.453,254.482,273.264,281.97,305,269z"/>
	<path fill-rule="evenodd" clip-rule="evenodd" fill="#5D9732" d="M347,273c10.751,6.029,8.111,20.647,12,31
		c3.929,10.46,19.849,19.48,34,14c0.493-3.507,1.491-6.509,1-11c3.489-0.916,6.372,3.626,9,6c2.979,2.691,6.152,6.209,10,9
		c10.471,7.597,24.799,9.985,31,21c-10.824-11.018-30.152-13.845-50-18c-12.062-2.525-22.085-8.342-33-12
		c-14.424-4.834-30.614-1.618-44-8c2.608-6.676,10.237-4.07,12-10c2.837-9.546-7.465-12.988-10-21
		C329.102,274.436,336.556,272.222,347,273z"/>
	<path fill-rule="evenodd" clip-rule="evenodd" d="M445,274c-5.234,6.075-14.578,6.264-22,9c-7.54,2.78-13.835,7.218-21,9
		c2.05-6.851,10.627-9.314,17-12c7.008-2.953,15.227-4,22-7C443.09,272.576,443.648,273.686,445,274z"/>
	<path fill-rule="evenodd" clip-rule="evenodd" d="M457,291c-5.255,1.962-12.941-1.512-16-5
		C444.122,282.554,454.677,287.171,457,291z"/>
	<path fill-rule="evenodd" clip-rule="evenodd" d="M420,290c6.481,3.519,18.042,1.958,20,10
		C432.588,297.412,422.015,297.985,420,290z"/>
	<path fill-rule="evenodd" clip-rule="evenodd" fill="#5D9732" d="M466,476c-20.684-7.316-35.576-20.424-58-26
		c-12.627-22.373-30.103-39.897-57-48c-5.576-14.757-15.08-25.587-13-48c8.483-8.6,15.452-17.44,28-20
		c4.974-1.015,10.549,0.834,16,0c3.767-0.576,7.911-3.672,12-4c23.562-1.888,42.219,17.32,57,25c3.32-24.989-23.739-28.259-38-39
		c11.289-8.958,34.98-3.822,49-1c12.082,13.833,23.997,36.109,27,59C494.194,413.591,480.398,450.796,466,476z M429,379
		c5.324,12.009,11.819,22.847,18,34c3.178-6.291-2.996-12.354-6-18c-9.85-18.514-21.164-34.066-31-50c-1,0-2,0-3,0
		C409.897,356.818,420.697,369.266,429,379z M428,353c0,1,0,2,0,3c4.49,3.036,10.523,8.646,17,12c6.007,3.111,16.066,8.276,21,3
		C450.106,368.857,438.514,357.202,428,353z M389,408c8.945-12.388,18.44-24.227,21-43c-1.333,0-2.667,0-4,0
		C405.218,383.583,389.376,392.333,389,408z M447,382c9.987,10.043,20.422,24.87,34,28c-8.976-12.024-24.117-17.882-31-32
		c-1,0-2,0-3,0C447,379.333,447,380.667,447,382z M418,418c1.938-7.537,7.718-25.626,1-32C419.225,395.7,412.512,412.855,418,418z"
		/>
	<path fill-rule="evenodd" clip-rule="evenodd" fill="#5D9732" d="M305,312c5.711,19.906,1.863,38.245-2,58
		c4.006,11.327,7.927,22.74,11,35c-3.222,0.444-5.418,1.916-9,2c-4.002-12.998-10.286-23.714-14-37
		c-17.346-5.922-6.599-32.121-11-48C288.579,318.912,292.491,311.158,305,312z"/>
	<path fill-rule="evenodd" clip-rule="evenodd" fill="#5D9732" d="M275,325c5.614,41.729-18.887,60.391-17,104
		c-8.401-15.499-4.237-34.746-13-51c-6.489-12.037-19.035-19.149-16-38c0.863-5.359,6.14-6.743,4-13
		C246.17,333.97,261.076,326.163,275,325z"/>
	<path fill-rule="evenodd" clip-rule="evenodd" d="M407,345c1,0,2,0,3,0c9.836,15.934,21.15,31.486,31,50
		c3.004,5.646,9.178,11.709,6,18c-6.181-11.153-12.676-21.991-18-34C420.697,369.266,409.897,356.818,407,345z"/>
	<path fill-rule="evenodd" clip-rule="evenodd" d="M466,371c-4.934,5.276-14.993,0.111-21-3c-6.477-3.354-12.51-8.964-17-12
		c0-1,0-2,0-3C438.514,357.202,450.106,368.857,466,371z"/>
	<path fill-rule="evenodd" clip-rule="evenodd" fill="#5D9732" d="M155,363c0.141,21.858,26.843,17.157,36,30
		c4.355,10.521-6.251,15.786-12,23c-7.005,8.789-8.505,20.068-13,27c-10.546,16.264-32.604,29.193-52,31
		c-21.358,1.99-45.993-5.221-70-3c-7.533-45.221,9.152-85.881,35-107c3.58,3.087,4.915,8.418,9,11
		C101.491,362.687,129.726,357.19,155,363z M102,379c13.624-1.219,22.449,7.454,31,8c-3.1-7.644-18.028-11.914-32-12
		C100.925,376.742,101.223,378.11,102,379z M149,384c-0.012,1.321-1.753,0.914-2,2c-15.799,11.918-32.455,23.656-49,35
		c-16.694,11.446-34.604,22.263-47,38c33.599-24.734,70.374-46.293,101-74C150.722,384.945,150.615,383.718,149,384z M89,394
		c-10.42,2.353-23.158,8.865-26,17c11.808-7.826,27.083-13.308,42-16C100.958,391.541,93.546,392.974,89,394z M146,439
		c10.451-8.216,10.367-26.966,11-45c-1.278-0.055-1.385-1.282-3-1C153.644,410.017,148.905,427.853,146,439z M97,455
		c10.891-8.143,26.266-17.022,25-34c-1,0-2,0-3,0C118.93,439.597,101.173,440.506,97,455z"/>
	<path fill-rule="evenodd" clip-rule="evenodd" d="M406,365c1.333,0,2.667,0,4,0c-2.56,18.773-12.055,30.612-21,43
		C389.376,392.333,405.218,383.583,406,365z"/>
	<path fill-rule="evenodd" clip-rule="evenodd" d="M101,375c13.972,0.086,28.9,4.356,32,12c-8.551-0.546-17.376-9.219-31-8
		C101.223,378.11,100.925,376.742,101,375z"/>
	<path fill-rule="evenodd" clip-rule="evenodd" d="M447,378c1,0,2,0,3,0c6.883,14.118,22.024,19.976,31,32
		c-13.578-3.13-24.013-17.957-34-28C447,380.667,447,379.333,447,378z"/>
	<path fill-rule="evenodd" clip-rule="evenodd" d="M152,385c-30.626,27.707-67.401,49.266-101,74c12.396-15.737,30.306-26.554,47-38
		c16.545-11.344,33.201-23.082,49-35c0.247-1.086,1.988-0.679,2-2C150.615,383.718,150.722,384.945,152,385z"/>
	<path fill-rule="evenodd" clip-rule="evenodd" d="M419,386c6.718,6.374,0.938,24.463-1,32C412.512,412.855,419.225,395.7,419,386z"
		/>
	<path fill-rule="evenodd" clip-rule="evenodd" d="M105,395c-14.917,2.692-30.192,8.174-42,16c2.842-8.135,15.58-14.647,26-17
		C93.546,392.974,100.958,391.541,105,395z"/>
	<path fill-rule="evenodd" clip-rule="evenodd" d="M154,393c1.615-0.282,1.722,0.945,3,1c-0.633,18.034-0.549,36.784-11,45
		C148.905,427.853,153.644,410.017,154,393z"/>
	<path fill-rule="evenodd" clip-rule="evenodd" fill="#5D9732" d="M406,458c-39.127,30.415-99.998-2.987-109-40
		C339.322,388.843,394.973,417.759,406,458z M341,421c6.047,2.745,26.548,4.339,31-1C365.953,417.255,345.452,415.661,341,421z
		 M378,446c-20.764-8.335-39.471-19.118-61-26c-1.377-0.043-2.196,0.471-3,1c-0.043,1.377,0.471,2.196,1,3
		c30.155,7.188,52.204,27.783,82,32C392.091,450.71,384.315,448.535,378,446z M353,452c-1.239-4.428-3.351-7.982-7-10
		C343.332,446.267,349.111,454.289,353,452z"/>
	<path fill-rule="evenodd" clip-rule="evenodd" d="M205,414c-0.732,4.26-14.013,4.396-15,2C190.425,411.122,201.717,412.802,205,414
		z"/>
	<path fill-rule="evenodd" clip-rule="evenodd" d="M372,420c-4.452,5.339-24.953,3.745-31,1
		C345.452,415.661,365.953,417.255,372,420z"/>
	<path fill-rule="evenodd" clip-rule="evenodd" d="M397,456c-29.796-4.217-51.845-24.812-82-32c-0.529-0.804-1.043-1.623-1-3
		c0.804-0.529,1.623-1.043,3-1c21.529,6.882,40.236,17.665,61,26C384.315,448.535,392.091,450.71,397,456z"/>
	<path fill-rule="evenodd" clip-rule="evenodd" d="M119,421c1,0,2,0,3,0c1.266,16.978-14.109,25.857-25,34
		C101.173,440.506,118.93,439.597,119,421z"/>
	<path fill-rule="evenodd" clip-rule="evenodd" d="M221,429c-9.732,8.025-21.253,12.475-31,21c-9.048,7.914-16.596,19.361-28,22
		c7.279-8.333,16.086-16.328,25-24c9.3-8.004,18.864-14.953,31-20C219.615,427.718,219.722,428.945,221,429z"/>
	<path fill-rule="evenodd" clip-rule="evenodd" d="M346,442c3.649,2.018,5.761,5.572,7,10C349.111,454.289,343.332,446.267,346,442z
		"/>
	<path fill-rule="evenodd" clip-rule="evenodd" fill="#5D9732" d="M489,267c-4.347,16.73-19.851,38.897-39,42
		c-13.134,2.128-28.819-6.573-41,3c-13.489-5.815-18.066-21.253-13-36C405.712,247.728,467.116,252.399,489,267z M421,273
		c9.062-3.938,16.719-9.281,25-14c0.043-1.377-0.471-2.196-1-3C436.354,261.021,424.393,262.727,421,273z M441,273
		c-6.773,3-14.992,4.047-22,7c-6.373,2.686-14.95,5.149-17,12c7.165-1.782,13.46-6.22,21-9c7.422-2.736,16.766-2.925,22-9
		C443.648,273.686,443.09,272.576,441,273z M441,286c3.059,3.488,10.745,6.962,16,5C454.677,287.171,444.122,282.554,441,286z
		 M440,300c-1.958-8.042-13.519-6.481-20-10C422.015,297.985,432.588,297.412,440,300z"/>
	<path fill-rule="evenodd" clip-rule="evenodd" fill="#5D9732" d="M245,391c1.287,16.636,4.041,32.85,10,46
		c1.525,3.366,3.219,10.531,9,9c-2.792-10.911,0.972-31.068,2-47c8.922,5.078,16.682,11.318,26,16
		c-14.345,9.146-17.398,26.782-28,39c-14.92,17.195-37.887,21.941-68,25c10.637-11.096,33.06-20.851,28-41
		c-4.397,18.937-18.273,28.394-32,38c-1.302,3.948,3.669,2.42,1,5c-13.107,8.13-32.194,3.427-49,2c1.456-9.121,14.506-10.936,18-20
		c4.306-11.173,9.194-22.312,17-34C193.846,406.769,205.462,385.684,245,391z M190,416c0.987,2.396,14.268,2.26,15-2
		C201.717,412.802,190.425,411.122,190,416z M218,428c-12.136,5.047-21.7,11.996-31,20c-8.914,7.672-17.721,15.667-25,24
		c11.404-2.639,18.952-14.086,28-22c9.747-8.525,21.268-12.975,31-21C219.722,428.945,219.615,427.718,218,428z"/>
	<path fill-rule="evenodd" clip-rule="evenodd" d="M340,0c2,0,4,0,6,0c0,0.333,0,0.667,0,1c12.86,11.725,13.088,33.114,24,56
		c3.041,6.378,7.407,13.633,12,21c4.305,6.905,11.431,14.769,12,20c0.942,8.655-4.885,15.324-7,22c18.008-5.72,36.129-1.684,51-8
		c13.82-5.87,25.426-21.097,44-16c-0.06,10.273-3.469,17.197-7,24c8.46-0.207,14.298-3.036,24-2c0,2,0,4,0,6c-0.333,0-0.667,0-1,0
		c-6.118,16.296-18.791,36.652-26,55c-7.926,20.171-12.778,38.376-18,58c-12.765,7.8-29.42,12.021-46,18
		c-3.963,1.429-13.074,2.854-11,10c14.751-10.434,43.552-18.552,70-12c10.376,2.57,18.795,8.766,28,9
		c-3.174,26.16-18.852,39.815-39,49c20.618,3.752,31.488,33.843,36,59c7.707,42.974-8.996,86.555-26,111
		c-18.744-6.923-33.73-17.603-51-26c-5.645,12.205-29.02,23.243-52,20c-18.791-2.651-47.674-16.769-59-32
		c-5.014-6.743-9.277-14.452-11-22c-16.342,7.106-16.6,30.708-31,42c-21.952,17.214-53.764,17.869-85,27c-2,0-4,0-6,0
		c-12.56-2.439-29.17-0.83-36-9c12.253-4.417,22.184-16.479,25-27c-14.546,20.844-42.354,25.084-79,23
		c-9.463-0.538-18.596-4.259-27-4c-5.373,0.165-10.458,4.138-15,2c2.128-8.094-1.806-18.331-1-29c2.789-36.897,17.948-68.528,40-87
		c-11.091-32.242-54.09-32.576-78-52c0-0.333,0-0.667,0-1c27.744-10.923,44.854-32.479,56-60c4.383-4.951,11.192-7.474,14-14
		c-16.592-11.075-39.668-15.666-54-29c6.08-24.642,18.592-64.966,9-94c-2.049-6.202-8.099-12.736-7-16
		c3.833-11.383,24.673-6.469,35-13c-4.017-6.983-14.225-7.775-15-18c22.655-5.42,53.864-12.188,79-19c9.235-2.503,18.971-7.062,26-6
		c9.861,1.49,11.477,12.468,21,15c4.099-6.568,4.013-17.32,10-22c12.996,5.322,29.302,5.637,47,4c1.333-3,2.245-6.422,6-7
		C265.506,18.839,304.979,11.646,340,0z M356,33c-3.638-11.543-6.119-24.731-13-29c-35.307,12.026-77.143,17.525-114,28
		c12.487,2.114,27.264,2.372,37,8c14.494,8.378,18.067,24.859,27,38c0.988-3.989-2.988-3.011-2-7c22.736-14.309,42.737,10.876,44,34
		c-5.979,4.578-13.61,1.568-23,2c0.707,35.626,10.865,61.801,13,96c15.72-10.379,25.168-29.821,36-47
		c11.105-17.613,23.287-36.08,28-58C374.393,80.327,363.562,56.993,356,33z M151,99c11.125,2.875,16.269,11.731,26,16
		c1.03-9.364-4.334-12.333-4-21c6.481-11.186,13.772-21.561,18-35c3.657,1.677,4.913,5.754,10,6c6.143-16.218,13.965-8.351,25-2
		c13.3,7.655,19.724,12.289,15,30c8.034,6.3,12.949,15.717,27,16c6.642-62.641-56.007-55.993-94-74
		C167.423,57.423,159.952,78.952,151,99z M286,83c-4.238-34.309-37.563-53.41-82-42c26.578,5.383,52.591,10.325,64,31
		c5.984,10.845,3.835,24.625,8,35C286.405,105.058,287.521,95.309,286,83z M137,42c-25.265,5-64.645,19.695-91,24
		c-0.475,6.155,13.45,6.539,14,15c-11.055,5.278-26.425,6.242-36,13c17.562,28.538,7.207,77.82-2,108
		c14.328,12.069,30.768,14.308,49,25c7.97,4.674,23.257,17.055,31,17c5.945-0.042,12.217-7.098,18-8
		c16.004-2.498,33.834,14.368,48,1c-4.411-7.066-13.324-13.961-22-22c-7.031-6.515-15.215-18.559-23-21
		c-12.952-4.061-26.652,1.912-28-15c-1.969-24.699,18.964-42.271,45-46c-0.536-22.392-21.26-8.236-33-11
		c-1.271-5.535,3.946-13.435,8-21c7.321-13.66,12.621-22.302,32-16c8.393-4.94,8.855-17.812,13-27
		C153.347,52.609,147.978,39.828,137,42z M206,70c3.152,2.181,8.261,2.406,13,3C225.268,60.242,204.407,54.705,206,70z M215,78
		c-10.259-0.741-13.786-8.214-22-11C189.362,85.877,209.961,99.152,215,78z M230,79c0.272-3.287,2.508-7.526-2-8
		C225.473,72.95,227.712,78.555,230,79z M297,74c-8.396,52.161-53.093,71.177-76,104c4.515,0.485,6.805,3.195,11,4
		c41.271-17.608,35.312-87.066,97-81C324.504,86.873,315.391,67.674,297,74z M232,86c3.289-0.75,5.898-7.384,3-11
		C235.31,80.062,226.675,81.924,232,86z M182,89c3.667,0,7.333,0,11,0c-1.9-4.1-3.201-8.799-6-12
		C185.221,80.888,182.851,84.184,182,89z M214,90c7.796,1.615,15.008-6.914,8-11C220.027,83.36,216.632,86.299,214,90z M112,119
		c17.931-4.491,40.622-3.286,58-2c-8.473-4.193-13.397-11.936-25-13c-2.961-5.045,3.579-8.118,2-15
		C121.786,80.597,120.227,104.773,112,119z M233,92c-14.472,8.694-38.427-2.046-54,3c-1.448,10.448,5.448,12.552,4,23
		c3.723,1.944,8.155,3.178,12,5c6.975-3.765,6.558-10.922,15-13c13.499-3.323,31.498,6.461,44,0
		C244.03,106.97,240.329,97.671,233,92z M427,120c-14.974,2.035-28.322-1.746-43,6c-9.76,14.669-15.246,29.674-29,49
		c-3.49,4.904-9.241,10.372-15,17c-7.828,9.01-20.17,16.781-13,29c18.359-2.06,36.548-16.922,60-14c10.112,8.888,11.8,26.2,11,46
		c9.408-0.937,16.477-4.81,25-8c7.447-2.788,19.124-3.577,25-9c7.624-7.036,7.618-27.235,11-39c7.785-27.086,26.217-52.248,34-75
		c-10.603-1.566-18.913,8.598-25,0c3.33-5.775,11.971-16.553,8-23C457.576,99.615,446.14,117.398,427,120z M306,108
		c-26.606,11.546-28.56,33.149-44,54c-6.858,9.261-16.469,13.986-22,24c24.772,10.894,51.525,19.808,78,29
		C321.022,176.208,307.859,145.216,306,108z M210,114c-10.12,2.201-19.296,23.463-24,30c-3.884,5.398-8.052,10.474-12,15
		c-4.188,4.801-10.977,9.344-10,13c8.967-0.033,18.658,0.658,25-2c6.425-12.908,13.507-25.16,15-43c15.341-12.233,36.727,3.533,58,1
		c4.2-3.274,13.33-11.812,11-15C253.993,124.514,228.018,110.082,210,114z M149,174c19.797-5.87,26.309-25.024,37-40
		c-10.14-10.838-25.481-14.801-45-14C147.007,134.66,150.712,151.621,149,174z M209,130c-1.376,17.624-8.953,29.047-15,42
		c7.618,0.716,10.855,5.811,21,4c12.035-16.298,29.125-27.542,42-43C239.398,133.479,224.584,122.547,209,130z M111,159
		c2.751,9.458,17.292,12.623,32,13c1.121-10.106,2.31-25.389-1-34C125.675,137.729,107.554,147.153,111,159z M101,184
		c8.319,6.169,17.583,4.546,30,4c28.652-1.26,62.801,10.866,74-6c-29.059-11.212-86.016,7.882-101-21
		C101.765,167.431,100.412,174.745,101,184z M256,239c26.633-1.034,55.774,0.441,72-11c-25.591-16.409-60.4-23.599-90-36
		c-4.934-4.742-14.828-9.827-22-9C234.103,196.897,248.755,214.244,256,239z M235,210c-4.675-6.506-15.259-22.259-26-22
		c-5.628,0.136-11.188,6.854-17,8c-18.807,3.71-39.352-4.952-60-1c27.677,15.716,42.189,55.41,75,66c14.791,4.773,35.291-2.778,54,3
		c7.538-7.795,16.44-14.226,26-20c-13.011-0.81-27.811,1.248-38,0C247.437,229.999,242.817,220.879,235,210z M393,237
		c-0.9-10.327-5.682-32.594-18-27c-10.605,4.816-29.612,10.415-41,14c0.805,3.052,3.676,7.594,1,11
		c-28.905,3.428-50.32,14.346-66,31c13.102,2.011,23.908-3.207,35-2c13.573,1.477,26.899,9.866,42,3
		c11.615,6.719,18.372,18.294,19,36c6.438,4.895,10.146,12.521,23,11C387.275,288.569,395.232,262.6,393,237z M171,243
		c-3.213-0.404-7.366,3.34-11,4c-16.078,2.922-24.236-6.579-33-7c-9.236-0.444-16.318,8.743-24,9c-9.881,0.33-15.334-11.078-25-12
		c-17.047-1.625-24.246,26.872-31,37c-9.095,13.639-22.049,26.97-38,33c6.024,8.588,18.613,8.455,28,13
		c24.757,11.985,43.65,20.537,51,48c27.645-20.769,81.875-9.944,112,1c4.589-6.787,8.894-11.899,15-20
		c3.39-4.496,14.693-15.576,14-21c-2.245-17.563-56.629-6.18-58-25c6.182-16.151,18.6-26.066,28-39
		C185.093,263.219,181.724,244.349,171,243z M396,276c-5.066,14.747-0.489,30.185,13,36c12.181-9.573,27.866-0.872,41-3
		c19.149-3.103,34.653-25.27,39-42C467.116,252.399,405.712,247.728,396,276z M199,272c-10.823,7.167-13.921,20.396-22,32
		c10.646,6.307,23.435,5.695,36,9c11.811,3.106,23.719,10.629,35,11c14.279,0.469,28.778-7.305,41-13
		c12.445-5.799,25.185-11.303,34-20c-4.048-9.285-9.443-17.223-18-22C273.264,281.97,225.453,254.482,199,272z M319,274
		c2.535,8.012,12.837,11.454,10,21c-1.763,5.93-9.392,3.324-12,10c13.386,6.382,29.576,3.166,44,8c10.915,3.658,20.938,9.475,33,12
		c19.848,4.155,39.176,6.982,50,18c-6.201-11.015-20.529-13.403-31-21c-3.848-2.791-7.021-6.309-10-9c-2.628-2.374-5.511-6.916-9-6
		c0.491,4.491-0.507,7.493-1,11c-14.151,5.48-30.071-3.54-34-14c-3.889-10.353-1.249-24.971-12-31
		C336.556,272.222,329.102,274.436,319,274z M356,316c-16.88-0.453-30.996-3.67-44-8c-0.212-1.209-1.109-0.615-2,0
		c-0.055,1.278-1.282,1.385-1,3c4.305,29.01-6.385,68.247,9,92c9.668,0.348,18.923-3.968,28-1c-1.414-15.067-13.021-22.638-14-36
		c-1.869-25.513,24.268-33.91,49-38C375.879,324.778,361.563,322.11,356,316z M489,374c-3.003-22.891-14.918-45.167-27-59
		c-14.02-2.822-37.711-7.958-49,1c14.261,10.741,41.32,14.011,38,39c-14.781-7.68-33.438-26.888-57-25
		c-4.089,0.328-8.233,3.424-12,4c-5.451,0.834-11.026-1.015-16,0c-12.548,2.56-19.517,11.4-28,20c-2.08,22.413,7.424,33.243,13,48
		c26.897,8.103,44.373,25.627,57,48c22.424,5.576,37.316,18.684,58,26C480.398,450.796,494.194,413.591,489,374z M280,322
		c4.401,15.879-6.346,42.078,11,48c3.714,13.286,9.998,24.002,14,37c3.582-0.084,5.778-1.556,9-2c-3.073-12.26-6.994-23.673-11-35
		c3.863-19.755,7.711-38.094,2-58C292.491,311.158,288.579,318.912,280,322z M233,327c2.14,6.257-3.137,7.641-4,13
		c-3.035,18.851,9.511,25.963,16,38c8.763,16.254,4.599,35.501,13,51c-1.887-43.609,22.614-62.271,17-104
		C261.076,326.163,246.17,333.97,233,327z M203,374c-14.821-3.179-29.322-6.678-44-10c0.617,3.716,2.383,6.284,3,10
		c16.092,3.575,28.792,10.541,35,24c10.248-8.752,25.717-12.283,45-12c-6.237-13.763-14.305-25.695-19-41
		C214.396,352.729,210.45,365.117,203,374z M88,375c-4.085-2.582-5.42-7.913-9-11c-25.848,21.119-42.533,61.779-35,107
		c24.007-2.221,48.642,4.99,70,3c19.396-1.807,41.454-14.736,52-31c4.495-6.932,5.995-18.211,13-27c5.749-7.214,16.355-12.479,12-23
		c-9.157-12.843-35.859-8.142-36-30C129.726,357.19,101.491,362.687,88,375z M267,395c10.041,4.626,16.883,12.451,27,17
		c1.069-2.598,5.931-1.402,7-4c-7.969-14.031-8.781-35.219-24-42C272.156,374.156,268.009,383.009,267,395z M179,429
		c-7.806,11.688-12.694,22.827-17,34c-3.494,9.064-16.544,10.879-18,20c16.806,1.427,35.893,6.13,49-2c2.669-2.58-2.302-1.052-1-5
		c13.727-9.606,27.603-19.063,32-38c5.06,20.149-17.363,29.904-28,41c30.113-3.059,53.08-7.805,68-25
		c10.602-12.218,13.655-29.854,28-39c-9.318-4.682-17.078-10.922-26-16c-1.028,15.932-4.792,36.089-2,47
		c-5.781,1.531-7.475-5.634-9-9c-5.959-13.15-8.713-29.364-10-46C205.462,385.684,193.846,406.769,179,429z M297,418
		c9.002,37.013,69.873,70.415,109,40C394.973,417.759,339.322,388.843,297,418z"/>
</g>
</svg>
